<?xml version="1.0" encoding="UTF-8"?>
<svg width="18px" height="16px" viewBox="0 0 18 16" version="1.1" xmlns="http://www.w3.org/2000/svg" xmlns:xlink="http://www.w3.org/1999/xlink">
    <title>Stroke 246 + Stroke 247 + Stroke 248</title>
    <g id="Segunda-Version-HF" stroke="none" stroke-width="1" fill="none" fill-rule="evenodd" stroke-linejoin="round">
        <g id="Forecast_Download" transform="translate(-112.000000, -478.000000)" stroke="#2B383E" stroke-width="1.08">
            <g id="SIDE-NAVIGATION" transform="translate(79.000000, -41.000000)">
                <g id="Info-Open" transform="translate(0.000000, 352.000000)">
                    <g id="ButtonDownload/Default" transform="translate(25.000000, 155.000000)">
                        <g id="Group-2" transform="translate(9.000000, 11.000000)">
                            <g id="Stroke-246-+-Stroke-247-+-Stroke-248" transform="translate(0.000000, 2.000000)">
                                <path d="M12.052944,9.72 L13.100544,9.72 C13.100544,9.72 16.200144,9.31608 16.200144,6.27624 C16.200144,4.35024 14.609664,2.76696 12.632544,2.83896 C11.859984,1.20816 10.203984,0.07776 8.280144,0.07776 C5.714064,0.07776 3.623184,2.08224 3.473424,4.60944 C1.866384,4.2732 0.360144,5.4972 0.360144,7.13736 C0.360144,9.76032 3.114864,9.72 3.114864,9.72 L4.487184,9.72" id="Stroke-246"></path>
                                <line x1="8.28" y1="13.538304" x2="8.28" y2="6.338304" id="Stroke-247"></line>
                                <polyline id="Stroke-248" points="6.12 11.378304 8.28 13.538304 10.44 11.378304"></polyline>
                            </g>
                        </g>
                    </g>
                </g>
            </g>
        </g>
    </g>
</svg>